<?xml version="1.0" standalone="no"?>
<!DOCTYPE svg PUBLIC "-//W3C//DTD SVG 1.1//EN" "http://www.w3.org/Graphics/SVG/1.1/DTD/svg11.dtd">
<svg width="800" height="600" version="1.1" xmlns="http://www.w3.org/2000/svg">
<rect width="800" height="600" x="0" y="0" style="fill:rgb(238,238,238);stroke:none"/>
<rect width="800" height="600" x="0" y="0" style="fill:rgb(255,255,255);stroke:none"/>
<text x="2" y="566" fill="rgb(0,0,0)" font-family="Arial" font-size="12">0</text>
<text x="2" y="502" fill="rgb(0,0,0)" font-family="Arial" font-size="12">2000000</text>
<text x="2" y="437" fill="rgb(0,0,0)" font-family="Arial" font-size="12">4000000</text>
<text x="2" y="372" fill="rgb(0,0,0)" font-family="Arial" font-size="12">6000000</text>
<text x="2" y="307" fill="rgb(0,0,0)" font-family="Arial" font-size="12">8000000</text>
<text x="2" y="242" fill="rgb(0,0,0)" font-family="Arial" font-size="12">1.0E7</text>
<text x="2" y="177" fill="rgb(0,0,0)" font-family="Arial" font-size="12">1.2E7</text>
<text x="2" y="113" fill="rgb(0,0,0)" font-family="Arial" font-size="12">1.4E7</text>
<text x="2" y="48" fill="rgb(0,0,0)" font-family="Arial" font-size="12">1.6E7</text>
<text x="262" y="30" fill="rgb(0,0,0)" font-family="Arial" font-size="12">Distribution of sequence lengths over all sequences</text>
<line x1="61" y1="560" x2="790" y2="560" stroke="rgb(0,0,0)" stroke-width="1"/>
<line x1="61" y1="560" x2="61" y2="40" stroke="rgb(0,0,0)" stroke-width="1"/>
<text x="330" y="595" fill="rgb(0,0,0)" font-family="Arial" font-size="12">Sequence Length (bp)</text>
<text x="170" y="575" fill="rgb(0,0,0)" font-family="Arial" font-size="12">149</text>
<rect width="243" height="520" x="304" y="40" style="fill:rgb(230,230,230);stroke:none"/>
<text x="413" y="575" fill="rgb(0,0,0)" font-family="Arial" font-size="12">150</text>
<text x="656" y="575" fill="rgb(0,0,0)" font-family="Arial" font-size="12">151</text>
<line x1="61" y1="560" x2="790" y2="560" stroke="rgb(180,180,180)" stroke-width="1"/>
<line x1="61" y1="496" x2="790" y2="496" stroke="rgb(180,180,180)" stroke-width="1"/>
<line x1="61" y1="431" x2="790" y2="431" stroke="rgb(180,180,180)" stroke-width="1"/>
<line x1="61" y1="366" x2="790" y2="366" stroke="rgb(180,180,180)" stroke-width="1"/>
<line x1="61" y1="301" x2="790" y2="301" stroke="rgb(180,180,180)" stroke-width="1"/>
<line x1="61" y1="236" x2="790" y2="236" stroke="rgb(180,180,180)" stroke-width="1"/>
<line x1="61" y1="171" x2="790" y2="171" stroke="rgb(180,180,180)" stroke-width="1"/>
<line x1="61" y1="107" x2="790" y2="107" stroke="rgb(180,180,180)" stroke-width="1"/>
<line x1="61" y1="42" x2="790" y2="42" stroke="rgb(180,180,180)" stroke-width="1"/>
<line x1="182" y1="560" x2="425" y2="40" stroke="rgb(136,34,85)" stroke-width="1"/>
<line x1="425" y1="40" x2="668" y2="560" stroke="rgb(136,34,85)" stroke-width="1"/>
<rect width="130" height="23" x="660" y="40" style="fill:rgb(255,255,255);stroke:none"/>
<rect width="130" height="23" x="660" y="40" rx="0" ry="0" style="fill:none;stroke-width:1;stroke:rgb(192,192,192)"/>
<text x="663" y="55" fill="rgb(136,34,85)" font-family="Arial" font-size="12" font-weight="bold">Sequence Length</text>
</svg>
